<svg width="19" height="19" viewBox="0 0 19 19" fill="none" xmlns="http://www.w3.org/2000/svg">
<path d="M9.5 16.625C11.0794 16.6249 12.614 16.1003 13.8629 15.1335C15.1118 14.1667 16.0043 12.8126 16.4002 11.2836M9.5 16.625C7.92063 16.6249 6.38601 16.1003 5.13711 15.1335C3.8882 14.1667 2.99573 12.8126 2.59984 11.2836M9.5 16.625C11.4673 16.625 13.0625 13.4346 13.0625 9.5C13.0625 5.56542 11.4673 2.375 9.5 2.375M9.5 16.625C7.53271 16.625 5.9375 13.4346 5.9375 9.5C5.9375 5.56542 7.53271 2.375 9.5 2.375M16.4002 11.2836C16.5466 10.7136 16.625 10.1159 16.625 9.5C16.627 8.27459 16.3114 7.06957 15.709 6.00242M16.4002 11.2836C14.2889 12.454 11.9139 13.0663 9.5 13.0625C6.99675 13.0625 4.64471 12.4173 2.59984 11.2836M2.59984 11.2836C2.45001 10.7009 2.37447 10.1016 2.375 9.5C2.375 8.22938 2.7075 7.03554 3.29096 6.00242M9.5 2.375C10.7637 2.37447 12.0048 2.71016 13.0959 3.34761C14.187 3.98507 15.0889 4.90134 15.709 6.00242M9.5 2.375C8.23631 2.37447 6.99523 2.71016 5.9041 3.34761C4.81297 3.98507 3.91108 4.90134 3.29096 6.00242M15.709 6.00242C13.9853 7.49544 11.7804 8.31578 9.5 8.3125C7.12659 8.3125 4.95584 7.44167 3.29096 6.00242" stroke="#333333" stroke-width="1.5" stroke-linecap="round" stroke-linejoin="round"/>
</svg>
